<svg xmlns="http://www.w3.org/2000/svg" width="354.0237731933594" height="354.07464599609375" viewBox="-176.549072265625 -175.7306365966797 354.0237731933594 354.07464599609375"><title>Neo4j Graph Visualization</title><desc>Created using Neo4j (http://www.neo4j.com/)</desc><g class="layer relationships"><g class="relationship" transform="translate(-9.04401454663313 149.3440010592126) rotate(273.48928853823884)"><path class="b-outline" fill="#A5ABB6" stroke="none" d="M 25 0.5 L 48.032764465443336 0.5 L 48.032764465443336 -0.5 L 25 -0.5 Z M 93.56609729015037 0.5 L 116.5988617555937 0.5 L 116.5988617555937 3.5 L 123.5988617555937 0 L 116.5988617555937 -3.5 L 116.5988617555937 -0.5 L 93.56609729015037 -0.5 Z"/><text text-anchor="middle" pointer-events="none" font-size="8px" fill="#000000" x="70.79943087779685" y="3" font-family="Helvetica Neue, Helvetica, Arial, sans-serif">ACTED_IN</text></g><g class="relationship" transform="translate(104.55940348753518 106.4858702883772) rotate(225.24711998672763)"><path class="b-outline" fill="#A5ABB6" stroke="none" d="M 25 0.5 L 47.98895526498953 0.5 L 47.98895526498953 -0.5 L 25 -0.5 Z M 93.52228808969656 0.5 L 116.51124335468609 0.5 L 116.51124335468609 3.5 L 123.51124335468609 0 L 116.51124335468609 -3.5 L 116.51124335468609 -0.5 L 93.52228808969656 -0.5 Z"/><text text-anchor="middle" pointer-events="none" font-size="8px" fill="#000000" x="70.75562167734304" y="3" transform="rotate(180 70.75562167734304 0)" font-family="Helvetica Neue, Helvetica, Arial, sans-serif">ACTED_IN</text></g><g class="relationship" transform="translate(148.47468853738374 -6.492916790784796) rotate(537.1030306590037)"><path class="b-outline" fill="#A5ABB6" stroke="none" d="M 25 0.5 L 48.065672213938655 0.5 L 48.065672213938655 -0.5 L 25 -0.5 Z M 93.59900503864569 0.5 L 116.66467725258434 0.5 L 116.66467725258434 3.5 L 123.66467725258434 0 L 116.66467725258434 -3.5 L 116.66467725258434 -0.5 L 93.59900503864569 -0.5 Z"/><text text-anchor="middle" pointer-events="none" font-size="8px" fill="#000000" x="70.83233862629217" y="3" transform="rotate(180 70.83233862629217 0)" font-family="Helvetica Neue, Helvetica, Arial, sans-serif">ACTED_IN</text></g><g class="relationship" transform="translate(96.90723495355762 -111.46542282846887) rotate(490.7450493442159)"><path class="b-outline" fill="#A5ABB6" stroke="none" d="M 25 0.5 L 47.96964611262479 0.5 L 47.96964611262479 -0.5 L 25 -0.5 Z M 93.50297893733182 0.5 L 116.4726250499566 0.5 L 116.4726250499566 3.5 L 123.4726250499566 0 L 116.4726250499566 -3.5 L 116.4726250499566 -0.5 L 93.50297893733182 -0.5 Z"/><text text-anchor="middle" pointer-events="none" font-size="8px" fill="#000000" x="70.7363125249783" y="3" transform="rotate(180 70.7363125249783 0)" font-family="Helvetica Neue, Helvetica, Arial, sans-serif">ACTED_IN</text></g><g class="relationship" transform="translate(-6.631841934409548 -146.7306411340654) rotate(447.4299934907935)"><path class="b-outline" fill="#A5ABB6" stroke="none" d="M 25 0.5 L 47.68334094959647 0.5 L 47.68334094959647 -0.5 L 25 -0.5 Z M 93.2166737743035 0.5 L 115.90001472389997 0.5 L 115.90001472389997 3.5 L 122.90001472389997 0 L 115.90001472389997 -3.5 L 115.90001472389997 -0.5 L 93.2166737743035 -0.5 Z"/><text text-anchor="middle" pointer-events="none" font-size="8px" fill="#000000" x="70.45000736194999" y="3" font-family="Helvetica Neue, Helvetica, Arial, sans-serif">ACTED_IN</text></g><g class="relationship" transform="translate(-103.89368010500999 -104.82951828200778) rotate(405.534428787637)"><path class="b-outline" fill="#A5ABB6" stroke="none" d="M 25 0.5 L 47.89219517514542 0.5 L 47.89219517514542 -0.5 L 25 -0.5 Z M 93.42552799985245 0.5 L 116.31772317499787 0.5 L 116.31772317499787 3.5 L 123.31772317499787 0 L 116.31772317499787 -3.5 L 116.31772317499787 -0.5 L 93.42552799985245 -0.5 Z"/><text text-anchor="middle" pointer-events="none" font-size="8px" fill="#000000" x="70.65886158749893" y="3" font-family="Helvetica Neue, Helvetica, Arial, sans-serif">ACTED_IN</text></g><g class="relationship" transform="translate(-147.54907061293784 -8.191452809060014) rotate(363.57256248361836)"><path class="b-outline" fill="#A5ABB6" stroke="none" d="M 25 0.5 L 46.98484933707458 0.5 L 46.98484933707458 -0.5 L 25 -0.5 Z M 93.85151422354919 0.5 L 115.83636356062377 0.5 L 115.83636356062377 3.5 L 122.83636356062377 0 L 115.83636356062377 -3.5 L 115.83636356062377 -0.5 L 93.85151422354919 -0.5 Z"/><text text-anchor="middle" pointer-events="none" font-size="8px" fill="#000000" x="70.41818178031188" y="3" font-family="Helvetica Neue, Helvetica, Arial, sans-serif">DIRECTED</text></g><g class="relationship" transform="translate(-113.79879400761966 96.22673885755151) rotate(320.08353880753)"><path class="b-outline" fill="#A5ABB6" stroke="none" d="M 25 0.5 L 52.78620523738135 0.5 L 52.78620523738135 -0.5 L 25 -0.5 Z M 88.5862044744419 0.5 L 116.37240971182325 0.5 L 116.37240971182325 3.5 L 123.37240971182325 0 L 116.37240971182325 -3.5 L 116.37240971182325 -0.5 L 88.5862044744419 -0.5 Z"/><text text-anchor="middle" pointer-events="none" font-size="8px" fill="#000000" x="70.68620485591163" y="3" font-family="Helvetica Neue, Helvetica, Arial, sans-serif">WROTE</text></g></g><g class="layer nodes"><g class="node" aria-label="graph-node34" transform="translate(0,1.0206127620922383)"><circle class="b-outline" cx="0" cy="0" r="25" fill="#F79767" stroke="#f36924" stroke-width="2px"/><text class="caption" text-anchor="middle" pointer-events="none" x="0" y="5" font-size="10px" fill="#FFFFFF" font-family="Helvetica Neue, Helvetica, Arial, sans-serif"> Top Gun</text></g><g class="node" aria-label="graph-node21" transform="translate(-9.04401454663313,149.3440010592126)"><circle class="b-outline" cx="0" cy="0" r="25" fill="#C990C0" stroke="#b261a5" stroke-width="2px"/><text class="caption" text-anchor="middle" pointer-events="none" x="0" y="0" font-size="10px" fill="#FFFFFF" font-family="Helvetica Neue, Helvetica, Arial, sans-serif"> Tom</text><text class="caption" text-anchor="middle" pointer-events="none" x="0" y="10" font-size="10px" fill="#FFFFFF" font-family="Helvetica Neue, Helvetica, Arial, sans-serif"> Cruise</text></g><g class="node" aria-label="graph-node35" transform="translate(104.55940348753518,106.4858702883772)"><circle class="b-outline" cx="0" cy="0" r="25" fill="#C990C0" stroke="#b261a5" stroke-width="2px"/><text class="caption" text-anchor="middle" pointer-events="none" x="0" y="0" font-size="10px" fill="#FFFFFF" font-family="Helvetica Neue, Helvetica, Arial, sans-serif"> Kelly</text><text class="caption" text-anchor="middle" pointer-events="none" x="0" y="10" font-size="10px" fill="#FFFFFF" font-family="Helvetica Neue, Helvetica, Arial, sans-serif"> McGillis</text></g><g class="node" aria-label="graph-node36" transform="translate(148.47468853738374,-6.492916790784796)"><circle class="b-outline" cx="0" cy="0" r="25" fill="#C990C0" stroke="#b261a5" stroke-width="2px"/><text class="caption" text-anchor="middle" pointer-events="none" x="0" y="5" font-size="10px" fill="#FFFFFF" font-family="Helvetica Neue, Helvetica, Arial, sans-serif"> Val Kilmer</text></g><g class="node" aria-label="graph-node37" transform="translate(96.90723495355762,-111.46542282846887)"><circle class="b-outline" cx="0" cy="0" r="25" fill="#C990C0" stroke="#b261a5" stroke-width="2px"/><text class="caption" text-anchor="middle" pointer-events="none" x="0" y="0" font-size="10px" fill="#FFFFFF" font-family="Helvetica Neue, Helvetica, Arial, sans-serif"> Anthony</text><text class="caption" text-anchor="middle" pointer-events="none" x="0" y="10" font-size="10px" fill="#FFFFFF" font-family="Helvetica Neue, Helvetica, Arial, sans-serif"> Edwar…</text></g><g class="node" aria-label="graph-node38" transform="translate(-6.631841934409548,-146.7306411340654)"><circle class="b-outline" cx="0" cy="0" r="25" fill="#C990C0" stroke="#b261a5" stroke-width="2px"/><text class="caption" text-anchor="middle" pointer-events="none" x="0" y="0" font-size="10px" fill="#FFFFFF" font-family="Helvetica Neue, Helvetica, Arial, sans-serif"> Tom</text><text class="caption" text-anchor="middle" pointer-events="none" x="0" y="10" font-size="10px" fill="#FFFFFF" font-family="Helvetica Neue, Helvetica, Arial, sans-serif"> Skerritt</text></g><g class="node" aria-label="graph-node39" transform="translate(-103.89368010500999,-104.82951828200778)"><circle class="b-outline" cx="0" cy="0" r="25" fill="#C990C0" stroke="#b261a5" stroke-width="2px"/><text class="caption" text-anchor="middle" pointer-events="none" x="0" y="5" font-size="10px" fill="#FFFFFF" font-family="Helvetica Neue, Helvetica, Arial, sans-serif"> Meg Ryan</text></g><g class="node" aria-label="graph-node40" transform="translate(-147.54907061293784,-8.191452809060014)"><circle class="b-outline" cx="0" cy="0" r="25" fill="#C990C0" stroke="#b261a5" stroke-width="2px"/><text class="caption" text-anchor="middle" pointer-events="none" x="0" y="5" font-size="10px" fill="#FFFFFF" font-family="Helvetica Neue, Helvetica, Arial, sans-serif"> Tony Scott</text></g><g class="node" aria-label="graph-node41" transform="translate(-113.79879400761966,96.22673885755151)"><circle class="b-outline" cx="0" cy="0" r="25" fill="#C990C0" stroke="#b261a5" stroke-width="2px"/><text class="caption" text-anchor="middle" pointer-events="none" x="0" y="5" font-size="10px" fill="#FFFFFF" font-family="Helvetica Neue, Helvetica, Arial, sans-serif"> Jim Cash</text></g></g></svg>