<svg xmlns="http://www.w3.org/2000/svg" width="404.283935546875" height="429.8223876953125" viewBox="-195.5986785888672 -196.0185089111328 404.283935546875 429.8223876953125"><title>Neo4j Graph Visualization</title><desc>Created using Neo4j (http://www.neo4j.com/)</desc><g class="layer relationships"><g class="relationship" transform="translate(179.6852235025438 -83.52813311316771) rotate(472.4479549330914)"><path class="b-outline" fill="#A5ABB6" stroke="none" d="M 25 0.5 L 45.147219886948776 0.5 L 45.147219886948776 -0.5 L 25 -0.5 Z M 90.6805527116558 0.5 L 110.82777259860458 0.5 L 110.82777259860458 3.5 L 117.82777259860458 0 L 110.82777259860458 -3.5 L 110.82777259860458 -0.5 L 90.6805527116558 -0.5 Z"/><text text-anchor="middle" pointer-events="none" font-size="8px" fill="#000000" x="67.91388629930229" y="3" transform="rotate(180 67.91388629930229 0)" font-family="Helvetica Neue, Helvetica, Arial, sans-serif">ACTED_IN</text></g><g class="relationship" transform="translate(179.6852235025438 -83.52813311316771) rotate(214.30821484091484)"><path class="b-outline" fill="#A5ABB6" stroke="none" d="M 25 0.5 L 47.7963116832975 0.5 L 47.7963116832975 -0.5 L 25 -0.5 Z M 93.32964450800453 0.5 L 116.12595619130204 0.5 L 116.12595619130204 3.5 L 123.12595619130204 0 L 116.12595619130204 -3.5 L 116.12595619130204 -0.5 L 93.32964450800453 -0.5 Z"/><text text-anchor="middle" pointer-events="none" font-size="8px" fill="#000000" x="70.56297809565102" y="3" transform="rotate(180 70.56297809565102 0)" font-family="Helvetica Neue, Helvetica, Arial, sans-serif">ACTED_IN</text></g><g class="relationship" transform="translate(-89.41709454008235 -145.48038576314065) rotate(351.65032497148036)"><path class="b-outline" fill="#A5ABB6" stroke="none" d="M 25 0.5 L 47.89325311106096 0.5 L 47.89325311106096 -0.5 L 25 -0.5 Z M 93.42658593576799 0.5 L 116.31983904682895 0.5 L 116.31983904682895 3.5 L 123.31983904682895 0 L 116.31983904682895 -3.5 L 116.31983904682895 -0.5 L 93.42658593576799 -0.5 Z"/><text text-anchor="middle" pointer-events="none" font-size="8px" fill="#000000" x="70.65991952341447" y="3" font-family="Helvetica Neue, Helvetica, Arial, sans-serif">ACTED_IN</text></g><g class="relationship" transform="translate(-89.41709454008235 -145.48038576314065) rotate(481.49346121418614)"><path class="b-outline" fill="#A5ABB6" stroke="none" d="M 25 0.5 L 47.60527324983637 0.5 L 47.60527324983637 -0.5 L 25 -0.5 Z M 93.1386060745434 0.5 L 115.74387932437978 0.5 L 115.74387932437978 3.5 L 122.74387932437978 0 L 115.74387932437978 -3.5 L 115.74387932437978 -0.5 L 93.1386060745434 -0.5 Z"/><text text-anchor="middle" pointer-events="none" font-size="8px" fill="#000000" x="70.37193966218989" y="3" transform="rotate(180 70.37193966218989 0)" font-family="Helvetica Neue, Helvetica, Arial, sans-serif">ACTED_IN</text></g><g class="relationship" transform="translate(-130.52034267994944 122.91397407846398) rotate(255.78402065867397)"><path class="b-outline" fill="#A5ABB6" stroke="none" d="M 25 0.5 L 47.18937816635835 0.5 L 47.18937816635835 -0.5 L 25 -0.5 Z M 92.72271099106538 0.5 L 114.91208915742374 0.5 L 114.91208915742374 3.5 L 121.91208915742374 0 L 114.91208915742374 -3.5 L 114.91208915742374 -0.5 L 92.72271099106538 -0.5 Z"/><text text-anchor="middle" pointer-events="none" font-size="8px" fill="#000000" x="69.95604457871187" y="3" transform="rotate(180 69.95604457871187 0)" font-family="Helvetica Neue, Helvetica, Arial, sans-serif">ACTED_IN</text></g><g class="relationship" transform="translate(-130.52034267994944 122.91397407846398) rotate(394.8381213087055)"><path class="b-outline" fill="#A5ABB6" stroke="none" d="M 25 0.5 L 45.4081531672568 0.5 L 45.4081531672568 -0.5 L 25 -0.5 Z M 90.94148599196383 0.5 L 111.34963915922063 0.5 L 111.34963915922063 3.5 L 118.34963915922063 0 L 111.34963915922063 -3.5 L 111.34963915922063 -0.5 L 90.94148599196383 -0.5 Z"/><text text-anchor="middle" pointer-events="none" font-size="8px" fill="#000000" x="68.17481957961031" y="3" font-family="Helvetica Neue, Helvetica, Arial, sans-serif">ACTED_IN</text></g></g><g class="layer nodes"><g class="node" aria-label="graph-node34" transform="translate(125.1472867265693,48.477117076733855)"><circle class="b-outline" cx="0" cy="0" r="25" fill="#F79767" stroke="#f36924" stroke-width="2px"/><text class="caption" text-anchor="middle" pointer-events="none" x="0" y="5" font-size="10px" fill="#FFFFFF" font-family="Helvetica Neue, Helvetica, Arial, sans-serif"> Top Gun</text></g><g class="node" aria-label="graph-node5" transform="translate(-12.86335861673342,204.8038583635629)"><circle class="b-outline" cx="0" cy="0" r="25" fill="#F79767" stroke="#f36924" stroke-width="2px"/><text class="caption" text-anchor="middle" pointer-events="none" x="0" y="0" font-size="10px" fill="#FFFFFF" font-family="Helvetica Neue, Helvetica, Arial, sans-serif"> The</text><text class="caption" text-anchor="middle" pointer-events="none" x="0" y="10" font-size="10px" fill="#FFFFFF" font-family="Helvetica Neue, Helvetica, Arial, sans-serif"> Matrix</text></g><g class="node" aria-label="graph-node39" transform="translate(179.6852235025438,-83.52813311316771)"><circle class="b-outline" cx="0" cy="0" r="25" fill="#C990C0" stroke="#b261a5" stroke-width="2px"/><text class="caption" text-anchor="middle" pointer-events="none" x="0" y="5" font-size="10px" fill="#FFFFFF" font-family="Helvetica Neue, Helvetica, Arial, sans-serif"> Meg Ryan</text></g><g class="node" aria-label="graph-node72" transform="translate(57.33059298300126,-167.01851152896938)"><circle class="b-outline" cx="0" cy="0" r="25" fill="#F79767" stroke="#f36924" stroke-width="2px"/><text class="caption" text-anchor="middle" pointer-events="none" x="0" y="0" font-size="10px" fill="#FFFFFF" font-family="Helvetica Neue, Helvetica, Arial, sans-serif"> You've</text><text class="caption" text-anchor="middle" pointer-events="none" x="0" y="10" font-size="10px" fill="#FFFFFF" font-family="Helvetica Neue, Helvetica, Arial, sans-serif"> M…</text></g><g class="node" aria-label="graph-node76" transform="translate(-89.41709454008235,-145.48038576314065)"><circle class="b-outline" cx="0" cy="0" r="25" fill="#C990C0" stroke="#b261a5" stroke-width="2px"/><text class="caption" text-anchor="middle" pointer-events="none" x="0" y="0" font-size="10px" fill="#FFFFFF" font-family="Helvetica Neue, Helvetica, Arial, sans-serif"> Tom</text><text class="caption" text-anchor="middle" pointer-events="none" x="0" y="10" font-size="10px" fill="#FFFFFF" font-family="Helvetica Neue, Helvetica, Arial, sans-serif"> Hanks</text></g><g class="node" aria-label="graph-node110" transform="translate(-166.59868254266536,-19.499211172583543)"><circle class="b-outline" cx="0" cy="0" r="25" fill="#F79767" stroke="#f36924" stroke-width="2px"/><text class="caption" text-anchor="middle" pointer-events="none" x="0" y="0" font-size="10px" fill="#FFFFFF" font-family="Helvetica Neue, Helvetica, Arial, sans-serif"> Cloud</text><text class="caption" text-anchor="middle" pointer-events="none" x="0" y="10" font-size="10px" fill="#FFFFFF" font-family="Helvetica Neue, Helvetica, Arial, sans-serif"> Atlas</text></g><g class="node" aria-label="graph-node9" transform="translate(-130.52034267994944,122.91397407846398)"><circle class="b-outline" cx="0" cy="0" r="25" fill="#C990C0" stroke="#b261a5" stroke-width="2px"/><text class="caption" text-anchor="middle" pointer-events="none" x="0" y="0" font-size="10px" fill="#FFFFFF" font-family="Helvetica Neue, Helvetica, Arial, sans-serif"> Hugo</text><text class="caption" text-anchor="middle" pointer-events="none" x="0" y="10" font-size="10px" fill="#FFFFFF" font-family="Helvetica Neue, Helvetica, Arial, sans-serif"> Weavi…</text></g></g></svg>